<?xml version="1.0" standalone="yes"?>
<svg width="596" height="631">
<title>RealDRAW</title>
<path style="fill:none; stroke:#ffa500; stroke-width:6.66667" d="M75 576 C90 555 163 478 289 478 C415 478 503 542 531 571 "/>
<path style="fill:#000000; stroke:none" d="M136 311 C136 311 298.354 424 298.354 424 C298.354 424 477.116 312.738 459.844 311 C459.844 311 136 311 136 311 L136 311 z"/>
<path style="fill:#000000; stroke:none" d="M113 99 C113 99 297 188.541 297 188.541 C297 188.541 297 425 297 425 C297 425 132.868 312.856 132.868 312.856 C132.868 312.856 113 99 113 99 L113 99 z"/>
<path style="fill:#1c1010; stroke:none" d="M296 187.436 C296.865 187.436 483 99 483 99 C483 99 463.087 314.888 463.087 314.888 C463.087 314.888 296.865 425 296.865 425 C296.865 425 296 187.436 296 187.436 L296 187.436 z"/>
<path style="fill:#ff0000; stroke:none" d="M113 99.6 C113 99.6 298.433 32 298.433 32 C298.433 32 483 99.6 483 99.6 C483 99.6 294.967 188 294.967 188 C294.967 188 113 99.6 113 99.6 L113 99.6 z"/>
<path style="fill:#000000; stroke:none" d="M294.648 112.036 C294.648 112.036 328.458 126.721 328.458 126.721 C328.458 126.721 369.386 108.58 369.386 108.58 C369.386 108.58 375.614 103.398 362.268 96.487 C348.032 91.305 332.017 96.487 332.017 96.487 C332.017 96.487 294.648 112.036 294.648 112.036 M230.004 85.738 C230.004 85.738 259.059 98.215 259.059 98.215 C259.059 98.215 298.207 83.531 299.097 80.939 C299.987 79.211 295.538 73.165 287.53 72.301 C280.412 70.574 275.964 67.405 265.287 71.724 C259.059 73.452 231.477 85.258 231.477 85.258 M136 94.856 C136 94.856 301.797 175 301.797 175 C301.797 175 426.727 117.122 426.727 117.122 C426.727 117.122 452.805 100.426 421.88 75.756 C381.842 57.617 346.681 78.254 344.013 77.39 C341.343 76.527 357.819 57.617 335.576 49.842 C312.443 42.931 283.265 42.258 269.736 47.251 C258.169 50.706 138.945 93.896 138.945 93.896 L294.648 112.036 z"/>
<path style="fill:#000000; stroke:none" d="M302 164.54 C302 164.54 302 175 302 175 C302 175 420.553 118.343 420.553 118.343 C424.88 115.728 439.591 111.37 437.86 90.451 C436.995 86.964 438.726 104.397 424.88 111.37 C410.169 119.215 302 164.54 302 164.54 L302 164.54 z"/>
<path style="fill:#000000; stroke:none" d="M289 107 C289 107 337.806 89 337.806 89 C337.806 89 363.952 92.428 363.952 92.428 C364.824 93.285 371.796 100.142 370.925 101.857 C370.053 103.571 363.081 109.571 363.081 109.571 C363.081 109.571 367.438 105.285 361.338 100.142 C350.008 92.428 339.549 96.714 335.191 96.714 C325.604 99.285 290.743 113 290.743 113 C290.743 113 289 107 289 107 L289 107 z"/>
<path style="fill:#665757; stroke:none" d="M135 89 C135 89 135 95.949 135 95.949 C135 95.949 300 175 300 175 C300 175 299.136 165.444 299.136 165.444 C299.136 165.444 135 89 135 89 L135 89 z"/>
<path style="fill:#000000; stroke:none" d="M226 80.75 C226 80.75 267.431 65 267.431 65 C267.431 65 289.874 67.625 289.874 68.5 C290.737 68.5 296.779 74.625 295.916 76.375 C295.053 78.125 292.463 85.125 292.463 85.125 C292.463 85.125 294.189 79.875 288.147 74.625 C277.789 69.375 269.158 70.25 264.842 72 C258.8 73.75 227.726 86 227.726 86 C227.726 86 226 80.75 226 80.75 L226 80.75 z"/>
<path style="fill:#202020; stroke:none" d="M290.115 107.838 C290.115 107.838 323.88 121.954 323.88 121.954 C323.88 121.954 364.753 103.763 364.753 103.763 C364.753 103.763 370.973 98.566 357.645 91.635 C343.428 86.438 327.434 91.635 327.434 91.635 C327.434 91.635 290.115 107.228 290.115 107.228 M225.557 80.857 C225.557 80.857 254.573 93.368 254.573 93.368 C254.573 93.368 293.669 78.642 294.558 76.043 C295.447 74.311 291.004 68.247 283.006 67.381 C275.898 65.648 271.455 63.915 260.793 68.247 C254.573 69.979 227.028 80.375 227.028 80.375 M135.239 89.037 C135.239 89.037 301.666 167 301.666 167 C301.666 167 422.509 113.292 422.509 113.292 C422.509 113.292 459.828 90.77 417.177 70.846 C377.193 52.655 346.982 69.979 344.316 69.114 C341.651 68.247 353.202 52.655 330.988 44.858 C307.886 37.928 278.748 37.253 265.235 42.259 C253.684 45.724 134.619 89.037 134.619 89.037 L290.115 107.228 z"/>
<path style="fill:#000000; stroke:none" d="M311 209.359 C311 209.359 372.138 179.042 372.138 179.908 C372.138 180.774 387.638 271.725 387.638 271.725 C387.638 271.725 414.333 156.521 414.333 156.521 C414.333 156.521 466 134 466 134 C466 134 450.5 293.38 450.5 293.38 C450.5 293.38 424.666 309.838 424.666 309.838 C424.666 309.838 430.694 198.964 430.694 198.964 C430.694 198.964 398.833 327.161 398.833 327.161 C398.833 327.161 372.138 342.753 372.138 342.753 C372.138 342.753 349.75 241.408 349.75 241.408 C349.75 241.408 345.444 361.809 345.444 361.809 C345.444 361.809 311 380 311 380 C311 380 311 209.359 311 209.359 L311 209.359 z"/>
<path style="fill:#8f0b0b; stroke:none" d="M379 345 C379 345 373.06 340.681 373.06 340.681 C373.06 340.681 351 231 351 231 C351 231 358.636 231 358.636 231 C358.636 231 379 345 379 345 L379 345 z"/>
<path style="fill:#7b1b06; stroke:none" d="M431.941 312 C431.941 312 427 309.4 427 309.4 C427 309.4 435.235 195 435.235 195 C435.235 195 441 195.866 441 195.866 C441 195.866 434.411 310.266 434.411 310.266 C434.411 310.266 431.941 312 431.941 312 L431.941 312 z"/>
<path style="fill:#ff5353; stroke:none" d="M418 154.65 C418 154.65 425.716 159 425.716 159 C425.716 159 473.982 134.61 473.982 134.61 C473.982 134.61 467.98 131.1 467.98 131.1 C467.98 131.1 418 154.65 418 154.65 L418 154.65 z"/>
<path style="fill:#fa9075; stroke:none" d="M422 156.58 C422 156.58 416.972 154 416.972 154 C416.972 154 391 264.958 391 264.958 C391 264.958 398.54 277 398.54 277 C398.54 277 422 156.58 422 156.58 L422 156.58 z"/>
<path style="fill:#e66868; stroke:none" d="M319 210.602 C319 210.602 313 208 313 208 C313 208 313 378.058 313 378.058 C313 378.058 318.142 385 318.142 385 C318.142 385 319 210.602 319 210.602 L319 210.602 z"/>
<path style="fill:#ea7171; stroke:none" d="M312 207.66 C312 207.66 318.804 212 318.804 212 C318.804 212 380 182.105 380 182.105 C380 182.105 374.367 178 374.367 178 C374.367 178 312 207.66 312 207.66 L312 207.66 z"/>
<path style="fill:#ff3636; stroke:none" d="M318 210.429 C318 210.429 380.346 180.031 380.346 180.899 C380.346 181.768 395.067 272.093 395.067 272.093 C395.067 272.093 421.91 157.449 421.91 157.449 C421.91 157.449 473 134 473 134 C473 134 459.145 293.806 459.145 293.806 C459.145 293.806 431.435 312.913 431.435 312.913 C431.435 312.913 438.363 199.138 438.363 199.138 C438.363 199.138 407.189 327.678 407.189 327.678 C407.189 327.678 379.48 345.916 379.48 345.916 C379.48 345.916 356.966 241.695 356.966 241.695 C356.966 241.695 352.636 362.418 352.636 362.418 C352.636 362.418 318 385 318 385 C318 385 318 210.429 318 210.429 L318 210.429 z"/>
<path style="fill:#141414; stroke:none" d="M126 134 C126 134 171.912 156.593 171.912 156.593 C171.912 156.593 198.767 273.903 198.767 273.903 C198.767 273.903 216.093 179.186 216.093 179.186 C216.093 179.186 274.133 208.731 274.133 208.731 C274.133 208.731 275 386 275 386 C275 386 243.813 365.144 243.813 365.144 C243.813 365.144 238.616 240.013 238.616 240.013 C238.616 240.013 219.558 345.158 219.558 345.158 C219.558 345.158 190.97 328.648 190.97 328.648 C190.97 328.648 160.651 198.303 160.651 198.303 C160.651 198.303 167.581 311.268 167.581 311.268 C167.581 311.268 138.994 293.889 138.994 293.889 C138.994 293.889 126 134 126 134 L126 134 z"/>
<path style="fill:#ea5e5e; stroke:none" d="M273.4 387 C273.4 387 279 384.397 279 384.397 C279 384.397 278.2 210 278.2 210 C278.2 210 271 211.735 271 211.735 C271 211.735 273.4 387 273.4 387 L273.4 387 z"/>
<path style="fill:#941d1d; stroke:none" d="M217 347 C217 347 223.16 343.516 223.16 343.516 C223.16 343.516 239 239.87 239 239.87 C239 239.87 234.6 239 234.6 239 C234.6 239 217 347 217 347 L217 347 z"/>
<path style="fill:#872525; stroke:none" d="M163.769 312 C163.769 312 168 310.268 168 310.268 C168 310.268 161.23 196.865 161.23 196.865 C161.23 196.865 157 196 157 196 C157 196 163.769 312 163.769 312 L163.769 312 z"/>
<path style="fill:#ff735b; stroke:none" d="M173.846 155.865 C173.846 155.865 200 275.269 200 275.269 C200 275.269 194.769 277 194.769 277 C194.769 277 166 155 166 155 C166 155 173.846 155.865 173.846 155.865 L173.846 155.865 z"/>
<path style="fill:#ff6767; stroke:none" d="M123 134.851 C123 134.851 129.034 134 129.034 134 C129.034 134 173 155.296 173 155.296 C173 155.296 166.103 157 166.103 157 C166.103 157 123 134.851 123 134.851 L123 134.851 z"/>
<path style="fill:#e21212; stroke:none" d="M124 134 C124 134 170.779 158.26 170.779 158.26 C170.779 158.26 197.633 276.095 197.633 276.095 C197.633 276.095 214.093 181.654 214.093 181.654 C214.093 181.654 272.133 211.113 272.133 211.113 C272.133 211.113 273 387 273 387 C273 387 241.813 366.205 241.813 366.205 C241.813 366.205 236.616 242.304 236.616 242.304 C236.616 242.304 217.558 346.277 217.558 346.277 C217.558 346.277 188.97 329.815 188.97 329.815 C188.97 329.815 158.651 199.849 158.651 199.849 C158.651 199.849 165.581 312.486 165.581 312.486 C165.581 312.486 137.86 295.157 137.86 295.157 C137.86 295.157 124 134 124 134 L124 134 z"/>
<path style="fill:#ff5f5f; stroke:none" d="M215 182.858 C215 182.858 222.662 182 222.662 182 C222.662 182 278 209.46 278 209.46 C278 209.46 271.455 213 271.455 213 C271.455 213 215 182.858 215 182.858 L215 182.858 z"/>
<path style="fill:#ff001d; opacity:0.556863; stroke:#000000; stroke-width:4" d="M118.2 525.66 L146.055 522.615 C147.763 533.021 150.917 540.381 156.172 545.458 C161.034 549.772 167.997 552.31 176.932 552.31 C185.735 552.31 192.698 550.28 197.166 545.965 C202.027 541.397 204.261 536.574 204.261 530.99 C204.261 527.183 203.341 524.138 201.107 521.092 C199.399 518.808 195.852 516.777 190.99 514.747 C187.837 513.224 180.348 510.94 168.523 507.386 C153.019 503.579 142.508 497.995 136.332 491.65 C127.923 483.274 123.456 472.36 123.456 460.178 C123.456 451.802 125.69 444.441 129.631 437.335 C133.704 430.482 139.354 425.152 147.369 421.091 C154.858 417.791 164.056 415.761 175.092 415.761 C192.698 415.761 205.969 420.076 214.772 428.451 C223.575 437.335 228.437 449.264 228.831 463.477 L200.188 464.492 C198.874 456.624 196.246 450.787 192.304 447.233 C188.363 443.934 182.581 441.903 174.698 441.903 C166.289 441.903 160.114 443.934 155.252 447.741 C152.23 450.279 150.917 453.071 150.917 457.132 C150.917 461.193 152.23 464.492 155.252 467.03 C158.8 470.33 167.209 473.883 181.268 477.944 C194.932 481.244 205.049 485.305 211.75 489.112 C218.32 493.173 223.575 498.503 227.123 505.356 C231.064 511.955 232.904 520.33 232.904 530.483 C232.904 539.366 230.67 547.742 226.203 555.61 C221.867 563.986 215.166 569.57 207.283 573.377 C198.874 577.438 188.757 579.468 176.406 579.468 C158.8 579.468 145.135 574.9 135.413 565.509 C125.69 556.625 120.04 543.427 118.2 525.66 z"/>
<path style="fill:#0019ff; opacity:0.556863; stroke:#000000; stroke-width:4" d="M433.36 514.3 L433.36 487.65 L495.504 487.65 L495.504 551.102 C489.29 557.701 480.745 563.031 469.093 567.854 C457.596 572.93 445.944 575.468 434.292 575.468 C419.222 575.468 406.171 571.915 394.985 565.062 C383.954 558.209 375.409 548.31 369.972 534.859 C364.223 522.168 361.582 508.209 361.582 492.98 C361.582 476.736 364.689 462.015 370.904 449.071 C377.118 436.38 386.595 426.482 398.558 419.629 C407.569 414.299 419.222 411.761 432.583 411.761 C450.449 411.761 464.277 415.568 474.531 423.944 C484.318 432.32 490.999 443.741 493.64 457.954 L465.209 464.046 C463.344 456.178 459.305 450.086 454.023 445.771 C448.119 441.203 440.972 438.919 433.049 438.919 C419.998 438.919 410.211 443.233 402.598 452.117 C394.985 461 391.412 474.452 391.412 491.457 C391.412 510.747 395.451 524.706 402.598 533.843 C410.211 543.234 420.464 548.31 432.583 548.31 C438.797 548.31 444.546 546.788 450.915 544.25 C457.13 541.965 461.946 538.412 466.452 534.351 L466.452 514.3 L433.36 514.3 z"/>
<path style="fill:#00ff04; opacity:0.556863; stroke:#000000; stroke-width:3" d="M281.424 573.351 L231 415.877 L261.492 415.877 L297.792 532.524 L332.376 415.877 L363 415.877 L312.444 573.351 L281.424 573.351 z"/>
<!-- End of RealDRAW generated image, http://www.mediachance.com -->
</svg>
